<svg width="451" height="83" viewBox="0 0 451 83" fill="none" xmlns="http://www.w3.org/2000/svg">
<g clip-path="url(#clip0_23_81)">
<path d="M62.6533 14.8267C61.4 13.9334 60.1467 13.2 58.8667 12.6C58.8667 14.0267 58.8667 15.6934 58.8667 17.4534C59.2933 17.7067 59.7067 17.9867 60.12 18.28C64.72 21.5867 69.44 30.2667 63.6133 40.64C61.76 43.9334 60.2667 45.88 58.6133 47.8C56.3867 50.3734 54.36 52.4934 50.08 56.4134C45.64 60.4667 39.08 64.6134 35.32 66.8667C31.5733 64.6267 25 60.4667 20.56 56.4134C16.28 52.5067 14.2667 50.3734 12.0267 47.8C10.36 45.8934 8.88001 43.9334 7.02667 40.64C1.20001 30.2667 5.93334 21.5867 10.5333 18.28C10.9467 17.9734 11.3733 17.7067 11.7867 17.4534C11.7867 15.7067 11.7867 14.0267 11.7867 12.6C10.5067 13.1867 9.24001 13.9334 8.00001 14.8267C2.16001 19.0267 -3.93333 29.92 3.26667 42.72C5.00001 45.8134 6.60001 48.0934 8.77334 50.5867C11.1067 53.28 13.2133 55.4934 17.64 59.5467C23.5067 64.9067 32.52 70.2267 35.32 71.8134C38.1067 70.2134 47.1333 64.9067 53 59.5467C57.4267 55.4934 59.5333 53.28 61.8667 50.5867C64.04 48.0934 65.6267 45.8134 67.3733 42.72C74.5733 29.92 68.4933 19.0267 62.6533 14.8267Z" fill="#FF0000"/>
<path d="M62.2667 25.96C61.4533 23.9867 60.2 22.4534 58.8667 21.2534C58.8667 25.1067 58.8667 28.64 58.8667 29.8134C58.8667 30.0667 58.8533 30.32 58.84 30.5734C58.8533 31.7067 58.6667 32.9067 58.2667 34.1867C57.8533 35.64 57.2533 36.92 56.56 38.1067C56.56 38.1067 56.56 38.1067 56.56 38.12C56.36 38.4667 56.1067 38.88 55.7867 39.32C55.6933 39.4534 55.6 39.5734 55.5067 39.7067C55.4667 39.76 55.4267 39.8134 55.3867 39.8667C55.24 40.0667 55.08 40.28 54.9333 40.48C54.9333 40.4934 54.92 40.4934 54.92 40.5067C54.8 40.6667 54.6667 40.8267 54.5333 40.9867C53.2533 42.6 51.5733 44.5067 49.76 46.3734C48.88 47.2934 47.9867 48.1867 47.0667 49.0534C46.7333 49.3734 46.4 49.68 46.08 49.9867C42.12 53.6267 37.9733 56.4667 35.3333 58.1334C32.7067 56.4667 28.56 53.6134 24.5867 49.9867C24.2533 49.68 23.92 49.3734 23.6 49.0534C22.68 48.1867 21.7733 47.2934 20.9067 46.3734C19.1067 44.5067 17.4267 42.6 16.1333 40.9867C16 40.8267 15.88 40.6667 15.7467 40.5067C15.7467 40.4934 15.7333 40.4934 15.7333 40.48C15.5733 40.28 15.4267 40.08 15.28 39.8667C15.24 39.8134 15.2 39.76 15.16 39.7067C15.0667 39.5734 14.9733 39.4534 14.88 39.32C14.5733 38.88 14.3067 38.4667 14.1067 38.12C14.1067 38.12 14.1067 38.12 14.1067 38.1067C13.4 36.92 12.8133 35.64 12.4 34.1867C12 32.9067 11.8133 31.6934 11.8267 30.5734C11.8133 30.32 11.8 30.0667 11.8 29.8134C11.8 28.64 11.8 25.1067 11.8 21.2534C10.4667 22.4534 9.21334 23.9867 8.40001 25.96C6.70667 30.0667 7.36001 34.8534 10.3333 40.1867C12.2267 43.5734 17.5733 49.3734 21.6533 53.12C27.4 58.3867 33.3867 62.04 35.3467 63.16C37.3067 62.0267 43.2933 58.3867 49.04 53.12C53.12 49.3734 58.4667 43.5734 60.36 40.1867C63.3067 34.8534 63.96 30.0667 62.2667 25.96Z" fill="#FF0000"/>
<path d="M55.4133 11.3867C52 10.56 48.3467 10.6934 44.1733 11.76C40.4533 12.72 37.52 14.56 35.3333 16.4C33.1467 14.56 30.2133 12.7067 26.4933 11.76C22.32 10.6934 18.6667 10.56 15.2533 11.3867C15.1867 11.4 15.0133 11.4534 15.0133 11.4534C15.0133 11.4534 15.0133 16.5467 15.0133 29.8134C15.0133 34.1467 17.0133 37.12 19.28 39.7734V15.1467C21.16 15.08 23.1733 15.32 25.4133 15.8934C30.4267 17.1734 33.7733 20.5734 35.3333 22.5067L35.3467 22.52L35.36 22.5067C36.92 20.5867 40.2533 17.1867 45.2667 15.8934C47.4933 15.32 49.5067 15.08 51.4 15.1467V39.7734C53.6667 37.1067 55.6667 34.1467 55.6667 29.8134C55.6667 16.5467 55.6667 11.4534 55.6667 11.4534C55.6667 11.4534 55.48 11.4 55.4133 11.3867Z" fill="#FF0000"/>
<path d="M44.8267 19.4267C41.52 20.84 37.4 25.2267 35.3334 28.08C33.2667 25.2267 29.12 20.84 25.8267 19.4267C24.8267 19 23.68 18.7467 22.52 18.5867L22.5334 43.3467C23.88 44.8267 25.3067 46.24 26.7867 47.5734V25.2267C30.1334 27.4134 32.84 31.4534 35.2667 34.8267L35.3467 34.9334L35.4267 34.8267C37.8534 31.44 40.56 27.4134 43.8934 25.2267V47.5734C45.3734 46.24 46.8 44.8267 48.1467 43.3467L48.16 18.5867C46.9867 18.7467 45.8267 19 44.8267 19.4267Z" fill="#FF0000"/>
<path d="M101.627 34.3067C104.427 30.8933 107.4 28.36 111.787 27.8267V51.4667H107.227V34.6933L101.76 40.4667H101.427L95.9867 34.6533V51.4667H91.4267V27.8267C95.8267 28.3733 98.7867 30.9067 101.627 34.3067Z" fill="#FF0000"/>
<path d="M134.253 39.64C134.253 35.3467 131.387 32.2134 127.16 32.2134C122.947 32.2134 120.067 35.36 120.067 39.64C120.067 43.9334 122.933 47.0667 127.16 47.0667C131.387 47.0667 134.253 43.9334 134.253 39.64ZM115.187 39.64C115.187 32.3867 120.213 27.4934 127.133 27.4934C134.053 27.4934 139.147 32.3867 139.147 39.64C139.147 46.56 134.053 51.8 127.133 51.8C120.213 51.8 115.187 46.56 115.187 39.64Z" fill="#FF0000"/>
<path d="M141.867 39.64C141.867 32.2134 147.067 27.4934 154.16 27.4934C155.133 27.4934 155.88 27.56 156.653 27.8V32.4934C155.88 32.2934 155.2 32.2267 154.187 32.2267C149.8 32.2267 146.76 35.0934 146.76 39.6534C146.76 44.2134 149.8 47.08 154.187 47.08C155.2 47.08 155.88 47.0134 156.653 46.8134V51.44C155.88 51.7467 155.093 51.8134 154.16 51.8134C147.067 51.8 141.867 46.7334 141.867 39.64Z" fill="#FF0000"/>
<path d="M166.347 41.2933H164.933V51.4667H160.373V27.8267H164.933V36.9067H166.48L169.387 27.8267H174.08L170.2 39.1067L174.587 51.4667H169.653L166.347 41.2933Z" fill="#FF0000"/>
<path d="M194.52 39.64C194.52 35.3467 191.653 32.2134 187.427 32.2134C183.213 32.2134 180.333 35.36 180.333 39.64C180.333 43.9334 183.2 47.0667 187.427 47.0667C191.653 47.0667 194.52 43.9334 194.52 39.64ZM175.44 39.64C175.44 32.3867 180.467 27.4934 187.387 27.4934C194.307 27.4934 199.4 32.3867 199.4 39.64C199.4 46.56 194.307 51.8 187.387 51.8C180.467 51.8 175.44 46.56 175.44 39.64Z" fill="#FF0000"/>
<path d="M211.747 44.24C211.747 42.1067 210.4 41.1333 207.187 41.1333V47.3467C210.373 47.3467 211.747 46.36 211.747 44.24ZM210.733 34.52C210.733 32.6667 209.48 31.92 207.187 31.92V37.16C209.453 37.1467 210.733 36.2 210.733 34.52ZM202.8 27.8267H206.52C212.253 27.8267 215.2 30.12 215.2 34.1733C215.2 36.2267 214.36 37.8933 212.56 38.8C215.2 39.7733 216.2 41.8 216.2 44.5733C216.2 48.96 213.16 51.4667 207.187 51.4667H202.8V27.8267Z" fill="#FF0000"/>
<path d="M218.413 39.64C218.413 32.2134 223.613 27.4934 230.707 27.4934C231.693 27.4934 232.427 27.56 233.2 27.8V32.4934C232.427 32.2934 231.747 32.2267 230.733 32.2267C226.347 32.2267 223.307 35.0934 223.307 39.6534C223.307 44.2134 226.347 47.08 230.733 47.08C231.747 47.08 232.427 47.0134 233.2 46.8134V51.44C232.427 51.7467 231.653 51.8134 230.707 51.8134C223.613 51.8 218.413 46.7334 218.413 39.64Z" fill="#FF0000"/>
<path d="M242.893 41.2933H241.48V51.4667H236.92V27.8267H241.48V36.9067H243.027L245.933 27.8267H250.627L246.747 39.1067L251.133 51.4667H246.2L242.893 41.2933Z" fill="#FF0000"/>
<path d="M265.867 43.6933L262.92 36.6667L259.987 43.6933H265.867ZM262.653 27.4933H263.333L274.173 51.4667H269.147L267.667 47.92H258.213L256.72 51.4667H251.827L262.653 27.4933Z" fill="#FF0000"/>
<path d="M280.667 35.4267C280.667 37.6267 282.36 38.7067 285.053 38.7067V32.16C282.347 32.1467 280.667 33.2267 280.667 35.4267ZM284.133 42.9867L280.627 51.4667H275.533L279.853 41.9733C277.147 40.6267 276.107 38.16 276.107 35.4267C276.107 30.36 279.653 27.8267 286.4 27.8267H289.613V51.4667H285.053V43.0267L284.133 42.9867Z" fill="#FF0000"/>
<path d="M310.627 34.3067C313.427 30.8933 316.4 28.36 320.787 27.8267V51.4667H316.227V34.6933L310.76 40.4667H310.427L304.987 34.6533V51.4667H300.427V27.8267C304.813 28.3733 307.787 30.9067 310.627 34.3067Z" fill="#FF0000"/>
<path d="M324.853 27.8267H335.827V32.2133H329.587V36.9067H334.653V41.2933H329.587V47.0667H336.333V51.4667H324.853V27.8267Z" fill="#FF0000"/>
<path d="M348.52 47.0667V32.1467H345.307L344.907 44.3334C344.867 45.4134 344.667 46.32 344.36 47.0667H348.52ZM340.36 44.3334L340.933 27.8267H353.08V47.0667H354.427V55.1734H350.04V51.4667H342.413V55.1867H338.027V47.0667C339.373 47.0667 340.28 46.3334 340.36 44.3334Z" fill="#FF0000"/>
<path d="M357.48 27.8267H361.867V39.48L370.68 27.4934H371.36V51.4667H366.973V39.8134L358.16 51.8H357.48V27.8267Z" fill="#FF0000"/>
<path d="M375.413 27.8267H380.133V47.0667H384.853V27.8267H389.587V47.0667H390.933V55.1733H386.547V51.4667H375.413V27.8267Z" fill="#FF0000"/>
<path d="M394 27.8267H398.387V39.48L407.2 27.4934H407.88V51.4667H403.493V39.8134L394.68 51.8H394V27.8267Z" fill="#FF0000"/>
<path d="M421.387 41.2667H416.667V51.4667H411.947V27.8267H416.667V36.88H421.387V27.8267H426.12V51.4667H421.387V41.2667Z" fill="#FF0000"/>
<path d="M442.36 43.6933L439.427 36.6667L436.493 43.6933H442.36ZM439.147 27.4933H439.827L450.667 51.4667H445.64L444.16 47.92H434.707L433.213 51.4667H428.32L439.147 27.4933Z" fill="#FF0000"/>
</g>
<defs>
<clipPath id="clip0_23_81">
<rect width="450.7" height="82.7" fill="white"/>
</clipPath>
</defs>
</svg>
