<svg width="71" height="76" viewBox="0 0 71 76" fill="none" xmlns="http://www.w3.org/2000/svg">
<path d="M35.4708 0.986328C16.0219 0.986328 0.292725 17.72 0.292725 38.411C0.292725 59.1019 16.0219 75.8356 35.4708 75.8356C54.8842 75.8356 70.6488 59.0642 70.6488 38.411C70.6488 17.7577 54.8842 0.986328 35.4708 0.986328ZM34.7977 30.7979H27.4645C31.8927 33.926 34.7977 39.2778 34.7977 45.3456C34.7977 54.9939 27.4645 62.7954 18.3954 62.7954V52.6195C22.186 52.6195 25.2326 49.3783 25.2326 45.3456C25.2326 41.313 22.186 38.0718 18.3954 38.0718V19.1522H34.7977V30.7979ZM53.5735 44.9311V56.5768H37.1712V37.6572C40.9618 37.6572 44.0084 34.416 44.0084 30.3833C44.0084 26.3507 40.9618 23.1094 37.1712 23.1094V12.9336C46.2403 12.9336 53.5735 20.7351 53.5735 30.3833C53.5735 36.4512 50.6685 41.8029 46.2403 44.9311H53.5735Z" fill="#34A99F"/>
</svg>
