<svg width="82" height="75" viewBox="0 0 82 75" fill="none" xmlns="http://www.w3.org/2000/svg">
<path d="M72.2977 4.88582C70.8452 3.79286 69.3928 2.88834 67.9403 2.17226C67.9403 3.90592 67.9403 5.97879 67.9403 8.12703C68.4363 8.42854 68.8968 8.76773 69.3928 9.14462C74.7067 13.215 80.1623 23.8431 73.4314 36.5818C71.3058 40.6145 69.5699 43.0265 67.6569 45.3632C65.0708 48.529 62.7681 51.1295 57.8085 55.916C52.7071 60.8908 45.126 65.9788 40.7686 68.73C36.4466 65.9788 28.8654 60.8908 23.7287 55.916C18.8044 51.1295 16.4663 48.4914 13.8802 45.3632C11.9672 43.0265 10.2313 40.6145 8.10578 36.5818C1.37484 23.8431 6.83045 13.1773 12.1443 9.14462C12.6403 8.76773 13.1009 8.42854 13.5968 8.12703C13.5968 5.97879 13.5968 3.90592 13.5968 2.17226C12.1089 2.88834 10.6565 3.79286 9.23942 4.88582C2.50847 10.0491 -4.5413 23.4285 3.78381 39.1446C5.80309 42.9512 7.64525 45.7401 10.1251 48.7929C12.8174 52.1094 15.2618 54.823 20.3632 59.7979C27.1296 66.3557 37.5448 72.9135 40.7686 74.8733C43.9923 72.9135 54.4076 66.3934 61.1739 59.7979C66.2753 54.823 68.7197 52.1094 71.4121 48.7929C73.9273 45.7401 75.7695 42.9135 77.7533 39.1446C86.0784 23.4285 79.0641 10.0491 72.2977 4.88582Z" fill="#34A99F"/>
<path d="M71.8726 18.529C70.9515 16.117 69.4991 14.2326 67.9403 12.7627C67.9403 17.5115 67.9403 21.8456 67.9403 23.2778C67.9403 23.5793 67.9049 23.9185 67.9049 24.22C67.9049 25.6145 67.6923 27.0843 67.2318 28.6672C66.7713 30.4386 66.0627 32.0215 65.2479 33.4914C65.0354 33.9059 64.7165 34.4336 64.3623 34.9612C64.256 35.112 64.1497 35.2627 64.0435 35.4512C64.008 35.5265 63.9372 35.5642 63.9017 35.6396C63.7246 35.9034 63.5475 36.1295 63.3704 36.3934C63.3704 36.3934 63.3704 36.4311 63.3349 36.4311C63.1932 36.6195 63.0515 36.8456 62.9098 37.0341C61.4219 39.0316 59.4735 41.3682 57.4188 43.6295C56.4269 44.7602 55.3641 45.8532 54.3013 46.9084C53.9116 47.2853 53.5219 47.6622 53.1677 48.0391C48.5977 52.4863 43.8152 55.9914 40.7686 58.0265C37.7219 55.9914 32.9394 52.4863 28.3695 48.0391C27.9798 47.6622 27.5901 47.2853 27.2358 46.9084C26.173 45.8532 25.1457 44.7602 24.1183 43.6295C22.0282 41.3306 20.1152 38.9939 18.6273 37.0341C18.4856 36.8456 18.3439 36.6195 18.2022 36.4311C18.2022 36.4311 18.2022 36.3934 18.1668 36.3934C17.9896 36.1295 17.8125 35.9034 17.6354 35.6396C17.6 35.5642 17.5291 35.4888 17.4937 35.4512C17.3874 35.3004 17.2811 35.1496 17.1748 34.9612C16.8206 34.4336 16.5018 33.9059 16.2892 33.4914C15.4744 32.0215 14.8013 30.4386 14.3053 28.6672C13.8448 27.0843 13.6322 25.6145 13.6322 24.22C13.6322 23.9185 13.5968 23.617 13.5968 23.2778C13.5968 21.8456 13.5968 17.5115 13.5968 12.7627C12.0735 14.2326 10.621 16.117 9.66453 18.529C7.7161 23.5793 8.46005 29.4587 11.8964 35.9788C14.0928 40.1245 20.2569 47.2476 24.9686 51.8456C31.5932 58.328 38.5013 62.7753 40.7686 64.1697C43.0358 62.7753 49.9439 58.328 56.5686 51.8456C61.2802 47.2476 67.4443 40.1245 69.6408 35.9788C73.0771 29.4587 73.821 23.5793 71.8726 18.529Z" fill="#34A99F"/>
<path d="M63.9372 0.664715C60.0049 -0.352873 55.7892 -0.202119 50.9713 1.11698C46.6847 2.28532 43.2838 4.54662 40.7686 6.80793C38.2533 4.54662 34.8524 2.28532 30.5659 1.11698C25.7479 -0.202119 21.5323 -0.352873 17.6 0.664715C17.5291 0.702403 17.3166 0.740092 17.3166 0.740092C17.3166 0.740092 17.3166 6.99637 17.3166 23.2778C17.3166 28.5919 19.6192 32.2476 22.2408 35.5265V5.30039C24.4018 5.22502 26.7399 5.52652 29.326 6.20492C35.1004 7.78783 38.9618 11.9712 40.7686 14.3079C42.5753 11.9336 46.4013 7.78783 52.2112 6.20492C54.7973 5.48884 57.1 5.18733 59.2964 5.30039V35.5265C61.9179 32.2476 64.2206 28.6295 64.2206 23.2778C64.2206 6.99637 64.2206 0.740092 64.2206 0.740092C64.2206 0.740092 64.0435 0.664715 63.9372 0.664715Z" fill="#34A99F"/>
<path d="M51.7506 10.5391C47.9246 12.2728 43.1775 17.6622 40.804 21.1672C38.4304 17.6622 33.6479 12.2728 29.8219 10.5391C28.6529 10.0114 27.3421 9.70994 25.9959 9.5215V39.8984C27.5547 41.7074 29.1843 43.4411 30.8847 45.0994V17.6622C34.7461 20.3381 37.8636 25.313 40.6623 29.4587L40.7686 29.6094L40.8748 29.4587C43.6735 25.313 46.791 20.3758 50.6524 17.6622V45.0994C52.3529 43.4788 54.0179 41.7451 55.5412 39.8984V9.5215C54.2304 9.67225 52.9197 10.0114 51.7506 10.5391Z" fill="#34A99F"/>
</svg>
