<svg width="115" height="57" viewBox="0 0 115 57" fill="none" xmlns="http://www.w3.org/2000/svg">
<path d="M5.90094 7.47377C5.90094 3.40342 8.55789 0.652161 12.2068 0.652161C15.8556 0.652161 18.548 3.40342 18.548 7.47377C18.548 11.3557 15.8556 14.2954 12.2068 14.2954C8.55789 14.2577 5.90094 11.3557 5.90094 7.47377ZM15.9619 7.47377C15.9619 5.06171 14.4386 3.32804 12.2422 3.32804C10.0103 3.32804 8.52245 5.0994 8.52245 7.47377C8.52245 9.88583 10.0458 11.6195 12.2422 11.6195C14.4386 11.6195 15.9619 9.84814 15.9619 7.47377Z" fill="#34A99F"/>
<path d="M20.3193 0.840607H22.2677C25.6332 0.840607 27.5108 2.31046 27.5108 5.17478C27.5108 7.43608 26.2708 9.50895 22.7991 9.50895V14.0316H20.3193V0.840607ZM24.9247 5.17478C24.9247 3.93106 24.1807 3.29036 22.7991 3.29036V7.0592C24.1807 7.09689 24.9247 6.4185 24.9247 5.17478Z" fill="#34A99F"/>
<path d="M28.5027 7.47377C28.5027 3.40342 31.1597 0.652161 34.8086 0.652161C38.4575 0.652161 41.1498 3.40342 41.1498 7.47377C41.1498 11.3557 38.4575 14.2954 34.8086 14.2954C31.1597 14.2577 28.5027 11.3557 28.5027 7.47377ZM38.5637 7.47377C38.5637 5.06171 37.0404 3.32804 34.844 3.32804C32.6122 3.32804 31.1243 5.0994 31.1243 7.47377C31.1243 9.88583 32.6476 11.6195 34.844 11.6195C37.0404 11.6195 38.5637 9.84814 38.5637 7.47377Z" fill="#34A99F"/>
<path d="M43.1691 10.0743L43.4879 0.840607H49.9V11.6195H50.6085V16.1421H48.2704V14.0693H44.2673V16.1421H41.9646V11.6195C42.6377 11.6195 43.1336 11.2049 43.1691 10.0743ZM47.4556 11.6195V3.25267H45.7552L45.5426 10.0743C45.5072 10.6773 45.4009 11.2049 45.2592 11.6195H47.4556Z" fill="#34A99F"/>
<path d="M51.813 7.47377C51.813 3.32804 54.5408 0.652161 58.296 0.652161C58.8274 0.652161 59.2171 0.689849 59.6068 0.840603V3.47879C59.1817 3.36573 58.8274 3.32804 58.296 3.32804C55.9933 3.32804 54.3991 4.94864 54.3991 7.47377C54.3991 10.0366 55.9933 11.6195 58.296 11.6195C58.8274 11.6195 59.1817 11.5818 59.6068 11.4687V14.0692C59.1817 14.22 58.792 14.2577 58.296 14.2577C54.5408 14.2577 51.813 11.4311 51.813 7.47377Z" fill="#34A99F"/>
<path d="M64.7081 8.3783H63.9641V14.0693H61.5552V0.840607H63.9641V5.92855H64.7789L66.3023 0.840607H68.7821L66.7274 7.17227L69.0301 14.0693H66.444L64.7081 8.3783Z" fill="#34A99F"/>
<path d="M75.0879 0.652161H75.4422L81.1457 14.0692H78.4888L77.7094 12.0718H72.7143L71.935 14.0692H69.3489L75.0879 0.652161ZM76.7883 9.73508L75.2296 5.81548L73.6709 9.73508H76.7883Z" fill="#34A99F"/>
<path d="M86.3888 9.32051L84.5466 14.0693H81.8542L84.1215 8.75518C82.7045 8.00141 82.1377 6.60694 82.1377 5.0994C82.1377 2.27277 84.0152 0.840607 87.5578 0.840607H89.2583V14.0693H86.8847V9.3582L86.3888 9.32051ZM84.5821 5.0994C84.5821 6.34312 85.4677 6.94613 86.8847 6.94613V3.29036C85.4677 3.25267 84.5821 3.85568 84.5821 5.0994Z" fill="#34A99F"/>
<path d="M3.24399 28.3532H2.50003V34.0441H0.0910645V20.8155H2.50003V25.9034H3.31482L4.83816 20.8155H7.31798L5.26325 27.1094L7.56594 34.0441H4.97985L3.24399 28.3532Z" fill="#34A99F"/>
<path d="M9.44352 30.3506L9.76234 20.8155H16.1745V34.0441H13.7655V23.2275H12.065L11.8525 30.3506C11.7462 33.5919 10.3292 34.1572 8.20361 34.1572V31.7074C8.91213 31.6697 9.4081 31.2552 9.44352 30.3506Z" fill="#34A99F"/>
<path d="M18.2646 20.8155H20.5673V27.3356L25.2081 20.627H25.5624V34.0441H23.2597V27.524L18.6188 34.2326H18.2646V20.8155Z" fill="#34A99F"/>
<path d="M32.683 28.3532H30.2031V34.0441H27.7233V20.8155H30.2031V25.8657H32.683V20.8155H35.1628V34.0441H32.683V28.3532Z" fill="#34A99F"/>
<path d="M37.2884 20.8155H39.6265V27.3356L44.2673 20.627H44.6216V34.0441H42.2835V27.524L37.6427 34.2326H37.2884V20.8155Z" fill="#34A99F"/>
<path d="M46.2866 20.8155H48.7664V23.8306C48.7664 26.2803 49.404 27.0718 51.0691 27.2979V20.8155H53.5489V34.0441H51.0691V29.7853C47.5619 29.5215 46.2866 27.6748 46.2866 23.8306V20.8155Z" fill="#34A99F"/>
<path d="M55.7099 20.8155H61.4843V23.2652H58.1897V25.9034H60.8821V28.3532H58.1897V31.5944H61.7677V34.0441H55.7099V20.8155Z" fill="#34A99F"/>
<path d="M62.8305 27.411C62.8305 23.2652 65.5583 20.5893 69.3135 20.5893C69.8449 20.5893 70.2345 20.627 70.6242 20.7778V23.416C70.1991 23.3029 69.8449 23.2652 69.3135 23.2652C67.0108 23.2652 65.4166 24.8858 65.4166 27.411C65.4166 29.9738 67.0108 31.5567 69.3135 31.5567C69.8449 31.5567 70.1991 31.519 70.6242 31.4059V34.0064C70.1991 34.1572 69.8094 34.1949 69.3135 34.1949C65.5583 34.2326 62.8305 31.4059 62.8305 27.411Z" fill="#34A99F"/>
<path d="M75.7256 28.3532H74.9816V34.0441H72.5726V20.8155H74.9816V25.9034H75.7964L77.3197 20.8155H79.7995L77.7448 27.1094L80.0475 34.0441H77.4614L75.7256 28.3532Z" fill="#34A99F"/>
<path d="M86.1054 20.627H86.4597L92.1633 34.0441H89.5063L88.7269 32.0466H83.7319L82.9525 34.0441H80.3664L86.1054 20.627ZM87.8059 29.71L86.2471 25.7904L84.6884 29.71H87.8059Z" fill="#34A99F"/>
<path d="M97.4063 29.2954L95.5641 34.0441H92.8718L95.139 28.73C93.722 27.9763 93.1552 26.5818 93.1552 25.0743C93.1552 22.2476 95.0327 20.8155 98.5753 20.8155H100.276V34.0441H97.8668V29.3331L97.4063 29.2954ZM95.5996 25.0743C95.5996 26.318 96.4852 26.921 97.9022 26.921V23.2652C96.4852 23.2275 95.5996 23.8305 95.5996 25.0743Z" fill="#34A99F"/>
<path d="M0.0910645 40.7903H6.36147V43.2401H2.57089V45.313C6.00721 45.313 7.24712 47.3858 7.24712 49.6471C7.24712 52.4361 5.47582 53.9813 2.57089 53.9813H0.0910645V40.7903ZM4.66103 49.6471C4.66103 48.4034 3.91708 47.725 2.53547 47.725V51.5692C3.91708 51.6069 4.66103 50.8908 4.66103 49.6471Z" fill="#34A99F"/>
<path d="M8.4516 47.3858C8.4516 43.3155 11.1086 40.5642 14.7574 40.5642C18.4063 40.5642 21.0987 43.3155 21.0987 47.3858C21.0987 51.2677 18.4063 54.2074 14.7574 54.2074C11.0731 54.2074 8.4516 51.2677 8.4516 47.3858ZM18.4772 47.3858C18.4772 44.9738 16.9539 43.2401 14.7574 43.2401C12.5256 43.2401 11.0377 45.0114 11.0377 47.3858C11.0377 49.7979 12.561 51.5315 14.7574 51.5315C16.9893 51.5692 18.4772 49.7979 18.4772 47.3858Z" fill="#34A99F"/>
<path d="M23.0117 50.3255L23.3305 40.7903H29.7426V54.019H27.3337V43.2024H25.6332L25.4207 50.3255C25.3144 53.5667 23.8974 54.132 21.7718 54.132V51.6823C22.4803 51.6446 22.9763 51.23 23.0117 50.3255Z" fill="#34A99F"/>
<path d="M31.8328 40.7903H34.3126V45.313C37.7843 45.313 39.0243 47.3858 39.0243 49.6471C39.0243 52.4361 37.2529 53.9813 34.3126 53.9813H31.8328V40.7903ZM36.4736 49.6471C36.4736 48.4034 35.7296 47.7627 34.348 47.7627V51.5316C35.7296 51.5692 36.4736 50.8908 36.4736 49.6471Z" fill="#34A99F"/>
<path d="M45.5426 48.2903H43.0628V54.019H40.5475V40.7903H43.0628V45.8406H45.5426V40.7903H48.0224V54.019H45.5426V48.2903Z" fill="#34A99F"/>
<path d="M50.148 40.7904H52.4507V47.3105L57.0915 40.6019H57.4458V54.019H55.1431V47.4989L50.5023 54.2074H50.148V40.7904Z" fill="#34A99F"/>
<path d="M59.6068 40.7903H62.0866V51.5692H64.5664V40.7903H67.0462V51.5692H67.7547V56.0918H65.452V54.019H59.6068V40.7903Z" fill="#34A99F"/>
<path d="M74.096 40.6019H74.4503L80.1539 54.019H77.4969L76.7175 52.0215H71.7225L70.9431 54.019H68.357L74.096 40.6019ZM75.7965 49.6471L74.2377 45.7275L72.679 49.6471H75.7965Z" fill="#34A99F"/>
<path d="M91.809 54.2074L87.1682 47.4989V54.019H84.8655V40.6019H85.2197L89.8606 47.3104V40.7903H92.1632V54.2074H91.809ZM93.1552 43.8431C93.1552 42.0717 94.2888 40.5642 96.2372 40.5642C98.1857 40.5642 99.3193 42.0717 99.3193 43.8431C99.3193 45.6145 98.1857 47.122 96.2372 47.122C94.2888 47.122 93.1552 45.6145 93.1552 43.8431ZM93.1552 47.8758H99.3193V50.2501H93.1552V47.8758ZM97.1937 43.8431C97.1937 43.2401 96.804 42.7501 96.2018 42.7501C95.5996 42.7501 95.2099 43.2401 95.2099 43.8431C95.2099 44.4461 95.5996 44.9361 96.2018 44.9361C96.8395 44.9361 97.1937 44.4461 97.1937 43.8431Z" fill="#34A99F"/>
<path d="M101.091 50.6647H103.393C103.393 51.3431 103.748 51.7577 104.208 51.7577C104.669 51.7577 105.023 51.3431 105.023 49.9486C105.023 48.7049 104.704 48.1773 104.208 48.1773C103.889 48.1773 103.677 48.3657 103.5 48.7426L101.516 48.1773L102.047 40.7903H106.865V43.2401H104.35L104.137 45.8029H104.385C106.546 45.8029 107.503 47.2728 107.503 49.9486C107.503 52.323 106.44 54.2074 104.173 54.2074C102.366 54.2074 101.091 53.0014 101.091 50.6647Z" fill="#34A99F"/>
<path d="M114.34 54.019H108.849C108.849 51.0039 109.239 49.4964 110.585 47.6873C111.612 46.3305 112.179 45.2376 112.179 44.1069C112.179 43.3155 111.931 43.014 111.541 43.014C111.152 43.014 110.904 43.3155 110.904 44.1069H108.601C108.601 42.7125 109.061 40.5642 111.47 40.5642C113.454 40.5642 114.482 41.7702 114.482 43.9939C114.482 45.7275 113.844 47.122 112.852 48.4788C111.825 49.8733 111.4 50.7024 111.4 51.5315H114.34V54.019Z" fill="#34A99F"/>
<path d="M0.0910645 0.840607H5.36955V3.29036H2.57089V14.0693H0.0910645V0.840607Z" fill="#34A99F"/>
</svg>
